# xmcd
# Copyright (C) 1995-1998 Ti Kan
#
# Track frame offsets:
#       150
#       18304
#       36693
#       55139
#       78720
#       95971
#       108731
#
# Disc length: 1700 seconds
#
# Revision: 0
# Processed by: cddbd v1.5.2PL0 Copyright (c) Steve Scherf et al.
# Submitted via: CD-Transfer v1.0
#
DISCID=6306a207
DTITLE=Maya and Domenico Soundtrack Buch 5 - 
DYEAR=09
DGENRE=
TTITLE0=Fly Brother Fly  (Englische Solo Version)
TTITLE1=Fly Brother Fly  (Eglische Band Version)
TTITLE2=Fly Brother Fly  (Deutsche Band Version)
TTITLE3=Cae Gauntt (Flügel)
TTITLE4=Beatbetrie (Positiv)
TTITLE5=Dänu Wisler (Psontaneous Ispiration >hendriks Song<)
TTITLE6=Super Glue (Fly Brither Fly Demo Tape Versiom)
EXTD=
EXTT0=
EXTT1=
EXTT2=
EXTT3=
EXTT4=
EXTT5=
EXTT6=
PLAYORDER=
